<svg width="855" height="512" viewBox="0 0 855 512" fill="none" xmlns="http://www.w3.org/2000/svg">
<g clip-path="url(#clip0_205_401)">
<path d="M240.936 185.949C240.716 194.506 241.77 203.048 244.063 211.293C246.59 218.344 249.632 225.2 253.166 231.803C254.431 233.755 255.121 236.026 255.157 238.353C255.157 241.2 253.45 244.05 249.754 246.895L231.84 258.856C229.679 260.415 227.109 261.305 224.448 261.418C221.209 261.195 218.169 259.774 215.918 257.432C212.085 253.309 208.656 248.827 205.678 244.048C202.835 239.207 199.989 233.794 196.863 227.247C174.684 253.44 146.817 266.537 113.262 266.537C89.3691 266.537 70.3259 259.701 56.393 246.028C42.4601 232.355 35.3506 214.14 35.3506 191.36C35.3506 167.155 43.8807 147.507 61.2269 132.699C78.5732 117.891 101.604 110.487 130.892 110.487C140.978 110.569 151.048 111.331 161.033 112.766C171.554 114.19 182.36 116.467 193.733 119.031V98.2428C193.733 76.5937 189.182 61.5094 180.369 52.6805C171.267 43.8532 155.915 39.582 134.019 39.582C123.671 39.5816 113.361 40.8243 103.309 43.2835C92.8555 45.7774 82.5928 49.0129 72.5982 52.9654C69.3646 54.4142 66.0401 55.6507 62.6459 56.6669C61.1736 57.153 59.643 57.4404 58.0948 57.5214C54.1142 57.5214 52.1231 54.6745 52.1231 48.6941V34.7411C52.1231 30.1834 52.692 26.7651 54.1142 24.7744C56.2599 22.1787 58.9893 20.1293 62.0787 18.794C73.4837 13.1428 85.5078 8.84261 97.9073 5.98041C112.397 2.25721 127.308 0.438386 142.266 0.569774C176.11 0.569774 200.842 8.25763 216.766 23.635C232.406 39.0123 240.367 62.3623 240.367 93.6867V185.949H240.936ZM125.49 229.233C135.466 229.123 145.357 227.392 154.778 224.107C165.215 220.491 174.527 214.206 181.791 205.876C186.375 200.627 189.684 194.388 191.459 187.645C193.413 179.534 194.367 171.214 194.302 162.871V150.923C185.68 148.821 176.948 147.205 168.146 146.082C159.279 144.957 150.35 144.389 141.413 144.381C122.361 144.381 108.429 148.083 99.0451 155.776C89.6617 163.468 85.1122 174.285 85.1122 188.523C85.1122 201.906 88.5255 211.873 95.6334 218.708C102.46 225.827 112.411 229.244 125.49 229.244V229.233ZM353.823 259.987C348.705 259.987 345.293 259.133 343.018 257.14C340.742 255.431 338.753 251.443 337.046 246.034L270.221 25.9138C268.925 22.2292 268.067 18.4049 267.662 14.5196C267.662 9.96188 269.938 7.3998 274.489 7.3998H302.355C307.758 7.3998 311.457 8.25437 313.445 10.2467C315.721 11.9559 317.426 15.9439 319.134 21.3529L366.905 209.864L411.262 21.3577C412.684 15.6606 414.389 11.9608 416.665 10.2516C418.94 8.54248 422.921 7.40469 428.042 7.40469H450.798C456.201 7.40469 459.9 8.25926 462.176 10.2516C464.451 11.9608 466.441 15.9487 467.579 21.3577L512.506 212.148L561.683 21.3577C563.389 15.6606 565.379 11.9608 567.372 10.2516C569.647 8.54248 573.343 7.40469 578.462 7.40469H604.907C609.458 7.40469 612.016 9.68354 612.016 14.5245C611.95 16.0566 611.76 17.5808 611.448 19.0822C611.002 21.5112 610.335 23.8944 609.456 26.2019L540.928 246.322C539.222 252.017 537.232 255.719 534.956 257.428C531.742 259.489 527.962 260.485 524.151 260.275H499.695C494.292 260.275 490.593 259.421 488.317 257.428C486.041 255.436 484.052 251.731 482.914 246.034L438.843 62.3623L395.052 245.749C393.629 251.446 391.924 255.146 389.649 257.144C387.373 259.141 383.393 259.99 378.271 259.99L353.823 259.987ZM719.213 267.675C704.466 267.691 689.769 265.97 675.423 262.549C661.206 259.131 650.116 255.43 642.723 251.155C638.172 248.593 635.047 245.744 633.909 243.179C632.802 240.665 632.221 237.951 632.202 235.203V220.69C632.202 214.71 634.478 211.863 638.743 211.863C640.484 211.869 642.213 212.157 643.861 212.717C645.568 213.287 648.126 214.427 650.971 215.564C661.015 219.988 671.5 223.329 682.25 225.531C693.388 227.795 704.723 228.94 716.088 228.949C734.001 228.949 747.936 225.818 757.604 219.552C762.235 216.754 766.044 212.776 768.642 208.024C771.24 203.273 772.535 197.916 772.395 192.501C772.495 188.835 771.868 185.186 770.55 181.764C769.232 178.342 767.25 175.217 764.718 172.567C759.6 167.157 749.927 162.313 735.999 157.755L694.759 144.943C674.001 138.394 658.646 128.713 649.264 115.896C640.11 104.078 635.111 89.5615 635.047 74.6046C634.816 63.5788 637.462 52.6834 642.723 42.9954C647.803 33.8341 654.787 25.8714 663.204 19.6454C672.066 12.9262 682.092 7.90441 692.776 4.83285C704.416 1.47756 716.485 -0.150678 728.597 6.2114e-05C734.965 -0.0461744 741.33 0.334484 747.648 1.13949C754.189 1.99405 760.164 3.13348 766.13 4.27127C771.819 5.69555 777.22 7.1182 782.339 8.82897C786.488 10.1143 790.491 11.8323 794.282 13.9547C797.631 15.6456 800.548 18.0809 802.812 21.0745C804.661 23.8455 805.559 27.1441 805.371 30.4715V43.8548C805.371 49.8352 803.095 52.9702 798.83 52.9702C796.555 52.9702 792.858 51.8308 788.024 49.552C771.816 42.1479 753.618 38.4458 733.429 38.4458C717.22 38.4458 704.425 41.0079 695.611 46.4218C686.796 51.8357 682.247 60.0949 682.247 71.7658C682.169 75.5471 682.888 79.3023 684.358 82.7862C685.828 86.2701 688.015 89.4043 690.777 91.9841C696.466 97.3947 706.985 102.805 722.056 107.646L762.434 120.453C782.914 127.003 797.694 136.116 806.509 147.79C815.188 159.245 819.792 173.278 819.588 187.657C819.735 199.094 817.203 210.407 812.196 220.689C807.15 230.435 800.071 238.981 791.438 245.748C782.05 253.066 771.329 258.484 759.874 261.7C746.703 265.756 732.991 267.773 719.212 267.68L719.213 267.675Z" fill="#252F3E"/>
<path d="M772.956 406.065C679.404 475.262 543.485 511.995 426.617 511.995C262.83 512.002 115.252 451.347 3.79044 350.542C-5.0241 342.566 2.9371 331.748 13.4583 338.008C134.022 408.06 282.738 450.486 436.571 450.486C540.359 450.486 654.383 428.837 759.309 384.42C774.948 377.301 788.312 394.675 772.962 406.069L772.956 406.065Z" fill="#FF9900"/>
<path d="M811.912 361.646C799.969 346.269 732.862 354.243 702.436 357.945C693.334 359.084 691.915 351.108 700.161 345.131C753.619 307.543 841.483 318.363 851.72 330.893C861.96 343.707 848.877 431.698 798.831 473.844C791.154 480.394 783.76 476.976 787.172 468.433C798.548 440.241 823.855 376.739 811.912 361.646Z" fill="#FF9900"/>
</g>
<defs>
<clipPath id="clip0_205_401">
<rect width="854.959" height="512" fill="white"/>
</clipPath>
</defs>
</svg>
