<svg width="899" height="512" viewBox="0 0 899 512" fill="none" xmlns="http://www.w3.org/2000/svg">
<g clip-path="url(#clip0_205_391)">
<path d="M292.178 457.517H255.409V311.804H292.178V457.517Z" fill="#C4122E"/>
<mask id="mask0_205_391" style="mask-type:luminance" maskUnits="userSpaceOnUse" x="0" y="-1" width="899" height="513">
<path d="M0.0917969 511.997H898.785V-0.0031937H0.0917969V511.997Z" fill="white"/>
</mask>
<g mask="url(#mask0_205_391)">
<path d="M588.658 353.555C587.144 352.787 575.31 345.776 557.724 345.776C533.953 345.776 517.461 362.314 517.461 384.641C517.461 406.292 533.243 423.541 557.724 423.541C575.008 423.541 587.039 416.669 588.658 415.807V454.917C584.046 456.198 571.479 460.099 555.15 460.099C513.793 460.099 477.49 431.589 477.49 384.629C477.49 341.129 510.334 309.216 555.15 309.216C572.387 309.216 585.175 313.41 588.658 314.446V353.555ZM204.864 353.555C203.385 352.787 191.564 345.776 173.977 345.776C150.16 345.776 133.68 362.314 133.68 384.641C133.68 406.292 149.473 423.541 173.977 423.541C191.261 423.541 203.28 416.669 204.864 415.807V454.917C200.299 456.198 187.744 460.099 171.322 460.099C129.999 460.099 93.7432 431.589 93.7432 384.629C93.7432 341.129 126.587 309.216 171.333 309.216C188.64 309.216 201.405 313.41 204.864 314.446V353.555ZM704.321 346.323C682.507 346.323 666.306 363.49 666.306 384.641C666.306 405.837 682.507 422.993 704.321 422.993C726.112 422.993 742.359 405.837 742.359 384.641C742.359 363.49 726.112 346.323 704.321 346.323ZM781.317 384.641C781.317 426.324 749.137 460.099 704.332 460.099C659.504 460.099 627.371 426.324 627.371 384.629C627.371 343.027 659.516 309.216 704.321 309.216C749.137 309.216 781.317 343.027 781.317 384.641ZM431.614 344.926C431.066 344.751 415.588 340.476 402.87 340.476C388.137 340.476 380.124 345.415 380.124 352.414C380.124 361.289 390.932 364.387 396.976 366.297L407.121 369.523C430.996 377.117 441.863 393.457 441.863 411.207C441.863 447.812 409.671 460.111 381.533 460.111C361.978 460.111 343.658 456.501 341.853 456.128V422.585C345.09 423.401 360.511 428.013 376.571 428.013C394.868 428.013 403.277 422.656 403.277 414.41C403.277 407.026 395.998 402.763 386.879 399.898C384.666 399.152 381.312 398.104 379.029 397.358C358.554 390.883 341.48 378.841 341.48 354.732C341.48 327.479 361.885 309.182 395.777 309.182C413.678 309.182 430.519 313.526 431.614 313.817V344.914V344.926Z" fill="#C4122E"/>
<path d="M54.7497 155.212C54.7497 145.173 46.5504 137.031 36.4993 137.031C26.4482 137.031 18.2373 145.172 18.2373 155.2V193.46C18.3576 198.222 20.3338 202.749 23.7444 206.074C27.155 209.4 31.73 211.261 36.4936 211.261C41.2571 211.261 45.832 209.4 49.2426 206.074C52.6532 202.749 54.6294 198.222 54.7497 193.46V155.212ZM155.016 105.015C155.016 100.173 153.093 95.5296 149.669 92.1059C146.245 88.6822 141.602 86.7588 136.76 86.7588C131.918 86.7588 127.275 88.6822 123.851 92.1059C120.427 95.5296 118.504 100.173 118.504 105.015V193.46C118.504 198.302 120.427 202.945 123.851 206.369C127.275 209.793 131.918 211.716 136.76 211.716C141.602 211.716 146.245 209.793 149.669 206.369C153.093 202.945 155.016 198.302 155.016 193.46V105.003V105.015ZM255.294 36.3228C255.294 26.2833 247.095 18.1305 237.044 18.1305C226.981 18.1305 218.782 26.2833 218.782 36.3228V229.809C218.902 234.571 220.878 239.098 224.289 242.423C227.699 245.749 232.274 247.61 237.038 247.61C241.801 247.61 246.376 245.749 249.787 242.423C253.198 239.098 255.174 234.571 255.294 229.809V36.3228ZM355.56 105.015C355.56 100.173 353.637 95.5296 350.213 92.1059C346.79 88.6822 342.146 86.7588 337.304 86.7588C332.462 86.7588 327.819 88.6822 324.395 92.1059C320.971 95.5296 319.048 100.173 319.048 105.015V193.46C319.048 198.302 320.971 202.945 324.395 206.369C327.819 209.793 332.462 211.716 337.304 211.716C342.146 211.716 346.79 209.793 350.213 206.369C353.637 202.945 355.56 198.302 355.56 193.46V105.003V105.015ZM455.722 155.212C455.725 150.396 453.815 145.775 450.413 142.366C447.01 138.956 442.393 137.038 437.576 137.031C432.749 137.028 428.118 138.939 424.697 142.345C421.276 145.751 419.345 150.373 419.326 155.2V193.46C419.326 198.286 421.243 202.915 424.656 206.328C428.069 209.741 432.698 211.658 437.524 211.658C442.35 211.658 446.979 209.741 450.392 206.328C453.805 202.915 455.722 198.286 455.722 193.46V155.212ZM556.035 105.015C555.915 100.268 553.945 95.7562 550.545 92.4414C547.146 89.1266 542.585 87.2713 537.837 87.2713C533.089 87.2713 528.528 89.1266 525.129 92.4414C521.729 95.7562 519.759 100.268 519.639 105.015V193.46C519.639 198.286 521.556 202.915 524.969 206.328C528.382 209.741 533.011 211.658 537.837 211.658C542.663 211.658 547.292 209.741 550.705 206.328C554.118 202.915 556.035 198.286 556.035 193.46V105.003V105.015ZM656.371 36.3228C656.371 31.4964 654.454 26.8676 651.041 23.4548C647.628 20.042 643 18.1248 638.173 18.1248C633.347 18.1248 628.718 20.042 625.305 23.4548C621.892 26.8676 619.975 31.4964 619.975 36.3228V229.809C619.868 232.266 620.259 234.719 621.125 237.021C621.991 239.322 623.314 241.425 625.014 243.202C626.714 244.978 628.757 246.392 631.019 247.358C633.28 248.324 635.714 248.822 638.173 248.822C640.632 248.822 643.066 248.324 645.328 247.358C647.589 246.392 649.632 244.978 651.332 243.202C653.033 241.425 654.356 239.322 655.222 237.021C656.088 234.719 656.479 232.266 656.371 229.809V36.3228ZM756.684 105.015C756.684 94.964 748.543 86.7993 738.259 86.7993C733.433 86.8024 728.806 88.7215 725.395 92.135C721.983 95.5486 720.067 100.177 720.067 105.003V193.46C720.067 203.558 728.22 211.698 738.259 211.698C748.543 211.698 756.684 203.558 756.684 193.46V105.003V105.015ZM856.811 155.212C856.811 150.381 854.892 145.748 851.476 142.332C848.06 138.915 843.426 136.997 838.595 136.997C833.764 136.997 829.131 138.915 825.715 142.332C822.299 145.748 820.38 150.381 820.38 155.212V193.46C820.38 203.558 828.544 211.71 838.595 211.71C848.635 211.71 856.799 203.558 856.799 193.46V155.212H856.811Z" fill="#15495D"/>
<path d="M835.765 438.32V440.603H829.266V457.502H826.588V440.615H820.065V438.32H835.765ZM837.128 438.32H841.309L847.051 454.055H847.144L852.699 438.332H856.799V457.502H854.062V441.779H853.969L848.146 457.502H845.618L839.935 441.779H839.806V457.502H837.128V438.32Z" fill="#C4122E"/>
</g>
</g>
<defs>
<clipPath id="clip0_205_391">
<rect width="898.876" height="512" fill="white"/>
</clipPath>
</defs>
</svg>
