<svg width="732" height="512" viewBox="0 0 732 512" fill="none" xmlns="http://www.w3.org/2000/svg">
<g clip-path="url(#clip0_205_405)">
<path d="M304.377 55.858C327.966 31.2794 360.807 16.0351 397.128 16.0351C445.411 16.0351 487.536 42.9581 509.969 82.926C529.464 74.2162 551.042 69.3708 573.745 69.3708C660.828 69.3708 731.429 140.587 731.429 228.431C731.429 316.285 660.828 387.5 573.745 387.5C563.314 387.507 552.909 386.47 542.685 384.406C522.93 419.643 485.286 443.451 442.077 443.451C423.989 443.451 406.881 439.274 391.648 431.845C371.622 478.95 324.965 511.978 270.587 511.978C213.959 511.978 165.697 476.147 147.172 425.895C139.076 427.614 130.689 428.51 122.082 428.51C54.6595 428.511 0 373.289 0 305.158C0 259.501 24.5581 219.637 61.0461 198.309C53.5341 181.024 49.3557 161.946 49.3557 141.888C49.3557 63.5362 112.965 0.0212402 191.422 0.0212402C237.485 0.0212402 278.422 21.9224 304.377 55.858Z" fill="#00A1E0"/>
<path d="M105.941 265.51C105.482 266.709 106.108 266.959 106.253 267.167C107.628 268.167 109.025 268.887 110.432 269.688C117.892 273.647 124.936 274.803 132.302 274.803C147.306 274.803 156.62 266.823 156.62 253.976V253.726C156.62 241.847 146.108 237.534 136.24 234.419L134.959 234.002C127.52 231.585 121.101 229.502 121.101 224.604V224.344C121.101 220.156 124.852 217.071 130.666 217.071C137.126 217.071 144.795 219.218 149.733 221.947C149.733 221.947 151.182 222.885 151.713 221.479C152.005 220.728 154.506 213.997 154.766 213.268C155.047 212.476 154.547 211.892 154.037 211.58C148.4 208.152 140.606 205.807 132.542 205.807L131.042 205.818C117.31 205.818 107.724 214.112 107.724 226V226.25C107.724 238.784 118.299 242.847 128.209 245.682L129.802 246.171C137.023 248.391 143.243 250.297 143.243 255.382V255.632C143.243 260.279 139.201 263.738 132.678 263.738C130.147 263.738 122.072 263.686 113.351 258.174C112.298 257.559 111.684 257.111 110.871 256.622C110.444 256.351 109.371 255.881 108.902 257.299L105.941 265.51ZM325.587 265.51C325.129 266.709 325.754 266.959 325.9 267.167C327.275 268.167 328.672 268.887 330.078 269.688C337.538 273.647 344.583 274.803 351.948 274.803C366.952 274.803 376.267 266.823 376.267 253.976V253.726C376.267 241.847 365.754 237.534 355.886 234.419L354.605 234.002C347.166 231.585 340.747 229.502 340.747 224.604V224.344C340.747 220.156 344.498 217.071 350.312 217.071C356.772 217.071 364.44 219.218 369.379 221.947C369.379 221.947 370.828 222.885 371.358 221.479C371.65 220.728 374.151 213.997 374.412 213.268C374.693 212.476 374.193 211.892 373.682 211.58C368.045 208.152 360.252 205.807 352.187 205.807L350.687 205.818C336.954 205.818 327.369 214.112 327.369 226V226.25C327.369 238.784 337.944 242.847 347.853 245.682L349.447 246.171C356.668 248.391 362.899 250.297 362.899 255.382V255.632C362.899 260.279 358.846 263.738 352.323 263.738C349.792 263.738 341.717 263.686 332.996 258.174C331.943 257.559 331.319 257.132 330.527 256.622C330.256 256.444 328.985 255.955 328.547 257.299L325.587 265.51ZM475.535 240.346C475.535 247.608 474.18 253.328 471.513 257.371C468.876 261.372 464.886 263.32 459.323 263.32C453.749 263.32 449.779 261.382 447.185 257.371C444.558 253.339 443.226 247.608 443.226 240.346C443.226 233.094 444.558 227.384 447.185 223.383C449.779 219.424 453.749 217.496 459.323 217.496C464.887 217.496 468.877 219.424 471.524 223.383C474.181 227.383 475.535 233.094 475.535 240.346ZM488.059 226.884C486.829 222.726 484.912 219.059 482.36 216.006C479.807 212.943 476.577 210.484 472.742 208.692C468.918 206.911 464.397 206.004 459.323 206.004C454.238 206.004 449.716 206.911 445.892 208.692C442.058 210.484 438.828 212.944 436.265 216.006C433.723 219.07 431.806 222.737 430.566 226.884C429.347 231.02 428.732 235.542 428.732 240.346C428.732 245.149 429.347 249.681 430.566 253.807C431.806 257.954 433.713 261.622 436.276 264.685C438.828 267.748 442.069 270.197 445.893 271.936C449.727 273.677 454.238 274.562 459.324 274.562C464.398 274.562 468.909 273.677 472.743 271.936C476.567 270.197 479.807 267.748 482.361 264.685C484.913 261.632 486.83 257.964 488.06 253.807C489.29 249.671 489.904 245.138 489.904 240.346C489.904 235.553 489.288 231.02 488.059 226.884ZM590.903 261.381C590.487 260.162 589.309 260.62 589.309 260.62C587.486 261.318 585.548 261.964 583.485 262.287C581.39 262.609 579.088 262.777 576.618 262.777C570.555 262.777 565.741 260.974 562.293 257.411C558.833 253.847 556.895 248.086 556.916 240.292C556.937 233.197 558.645 227.862 561.719 223.799C564.773 219.757 569.42 217.682 575.619 217.682C580.787 217.682 584.725 218.276 588.85 219.579C588.85 219.579 589.84 220.006 590.309 218.714C591.403 215.671 592.215 213.494 593.382 210.149C593.716 209.201 592.904 208.795 592.612 208.68C590.986 208.044 587.152 207.013 584.255 206.575C581.546 206.159 578.379 205.94 574.857 205.94C569.595 205.94 564.907 206.836 560.896 208.628C556.895 210.41 553.498 212.868 550.81 215.932C548.122 218.996 546.08 222.663 544.715 226.809C543.361 230.945 542.673 235.489 542.673 240.292C542.673 250.68 545.476 259.077 551.009 265.225C556.551 271.394 564.877 274.53 575.734 274.53C582.152 274.53 588.737 273.228 593.467 271.362C593.467 271.362 594.374 270.924 593.978 269.873L590.903 261.381ZM612.816 233.389C613.41 229.357 614.525 226.001 616.244 223.387C618.839 219.417 622.798 217.239 628.362 217.239C633.927 217.239 637.604 219.427 640.24 223.387C641.991 226.001 642.751 229.503 643.054 233.389H612.816ZM654.983 224.521C653.92 220.51 651.284 216.457 649.555 214.602C646.824 211.664 644.158 209.612 641.511 208.465C638.052 206.985 633.905 206.007 629.362 206.007C624.07 206.007 619.266 206.893 615.369 208.726C611.462 210.56 608.181 213.061 605.607 216.176C603.032 219.281 601.095 222.98 599.865 227.178C598.625 231.357 598 235.91 598 240.712C598 245.6 598.647 250.153 599.928 254.247C601.22 258.374 603.283 262.01 606.075 265.02C608.857 268.053 612.441 270.429 616.734 272.084C620.996 273.731 626.175 274.585 632.123 274.574C644.367 274.532 650.815 271.803 653.472 270.334C653.942 270.074 654.39 269.615 653.826 268.302L651.055 260.539C650.639 259.383 649.461 259.81 649.461 259.81C646.428 260.935 642.116 262.957 632.06 262.936C625.486 262.926 620.609 260.988 617.556 257.956C614.42 254.851 612.889 250.287 612.618 243.848L655.014 243.89C655.014 243.89 656.128 243.87 656.244 242.785C656.285 242.328 657.703 234.076 654.983 224.521ZM273.288 233.389C273.892 229.357 274.997 226.001 276.716 223.387C279.31 219.417 283.269 217.239 288.833 217.239C294.397 217.239 298.075 219.427 300.721 223.387C302.461 226.001 303.221 229.503 303.524 233.389H273.288ZM315.443 224.521C314.381 220.51 311.755 216.457 310.026 214.602C307.296 211.664 304.629 209.612 301.983 208.465C298.523 206.985 294.377 206.007 289.834 206.007C284.551 206.007 279.737 206.893 275.841 208.726C271.934 210.56 268.652 213.061 266.078 216.176C263.505 219.281 261.567 222.98 260.337 227.178C259.108 231.357 258.472 235.91 258.472 240.712C258.472 245.6 259.118 250.153 260.4 254.247C261.692 258.374 263.756 262.01 266.547 265.02C269.33 268.053 272.914 270.429 277.206 272.084C281.468 273.731 286.646 274.585 292.595 274.574C304.838 274.532 311.288 271.803 313.945 270.334C314.414 270.074 314.861 269.615 314.299 268.302L311.538 260.539C311.11 259.383 309.934 259.81 309.934 259.81C306.902 260.935 302.598 262.957 292.523 262.936C285.959 262.926 281.083 260.988 278.03 257.956C274.893 254.851 273.362 250.287 273.091 243.848L315.486 243.89C315.486 243.89 316.601 243.87 316.716 242.785C316.756 242.328 318.173 234.076 315.443 224.521ZM181.65 261.149C179.993 259.825 179.764 259.492 179.201 258.637C178.367 257.335 177.941 255.48 177.941 253.126C177.941 249.395 179.17 246.718 181.723 244.915C181.692 244.926 185.37 241.737 194.017 241.852C200.091 241.935 205.52 242.831 205.52 242.831V262.107H205.53C205.53 262.107 200.143 263.263 194.08 263.628C185.453 264.149 181.618 261.138 181.65 261.149ZM198.518 231.36C196.799 231.235 194.569 231.161 191.901 231.161C188.265 231.161 184.754 231.62 181.462 232.506C178.148 233.391 175.169 234.778 172.605 236.61C170.046 238.437 167.942 240.829 166.458 243.602C164.958 246.394 164.197 249.687 164.197 253.375C164.197 257.126 164.843 260.387 166.135 263.055C167.427 265.733 169.292 267.962 171.667 269.682C174.022 271.401 176.929 272.661 180.305 273.422C183.629 274.182 187.4 274.568 191.527 274.568C195.871 274.568 200.206 274.214 204.405 273.494C208.562 272.786 213.667 271.754 215.084 271.432C216.077 271.192 217.067 270.939 218.053 270.671C219.106 270.411 219.023 269.285 219.023 269.285L219.002 230.516C219.002 222.013 216.73 215.709 212.261 211.802C207.811 207.906 201.258 205.936 192.787 205.936C189.609 205.936 184.493 206.374 181.43 206.988C181.43 206.988 172.167 208.781 168.354 211.761C168.354 211.761 167.52 212.282 167.979 213.449L170.98 221.514C171.355 222.556 172.366 222.201 172.366 222.201C172.366 222.201 172.689 222.076 173.064 221.857C181.223 217.419 191.538 217.554 191.538 217.554C196.122 217.554 199.644 218.471 202.019 220.294C204.332 222.065 205.509 224.743 205.509 230.39V232.182C201.862 231.662 198.518 231.36 198.518 231.36ZM540.458 209.515C540.78 208.556 540.104 208.098 539.822 207.994C539.104 207.713 535.499 206.952 532.716 206.775C527.393 206.452 524.434 207.348 521.787 208.535C519.161 209.723 516.244 211.64 514.618 213.818V208.661C514.618 207.942 514.108 207.368 513.399 207.368H502.532C501.824 207.368 501.313 207.941 501.313 208.661V271.894C501.313 272.603 501.897 273.187 502.605 273.187H513.743C514.084 273.185 514.411 273.048 514.651 272.805C514.891 272.563 515.025 272.236 515.024 271.894V240.304C515.024 236.063 515.494 231.834 516.432 229.177C517.348 226.55 518.599 224.446 520.141 222.935C521.693 221.435 523.454 220.383 525.382 219.789C527.35 219.184 529.528 218.986 531.07 218.986C533.29 218.986 535.728 219.559 535.728 219.559C536.54 219.653 536.999 219.153 537.269 218.413C537.999 216.475 540.062 210.671 540.458 209.515Z" fill="white"/>
<path d="M435.909 180.208C434.555 179.792 433.325 179.51 431.721 179.208C430.094 178.917 428.157 178.77 425.959 178.77C418.29 178.77 412.247 180.937 408.007 185.209C403.786 189.461 400.921 195.931 399.483 204.443L398.961 207.308H389.335C389.335 207.308 388.168 207.267 387.918 208.538L386.345 217.363C386.23 218.197 386.595 218.728 387.72 218.728H397.087L387.584 271.782C386.844 276.055 385.99 279.566 385.042 282.233C384.114 284.859 383.208 286.828 382.083 288.266C380.999 289.641 379.978 290.662 378.206 291.256C376.748 291.746 375.06 291.975 373.216 291.975C372.194 291.975 370.83 291.807 369.819 291.599C368.819 291.401 368.288 291.183 367.527 290.859C367.527 290.859 366.433 290.443 365.995 291.537C365.651 292.443 363.151 299.309 362.848 300.154C362.557 300.997 362.974 301.654 363.504 301.852C364.755 302.289 365.682 302.581 367.38 302.987C369.736 303.54 371.725 303.571 373.59 303.571C377.486 303.571 381.05 303.019 383.999 301.956C386.958 300.883 389.542 299.017 391.834 296.497C394.303 293.766 395.856 290.912 397.336 287.005C398.805 283.149 400.066 278.357 401.066 272.772L410.62 218.728H424.582C424.582 218.728 425.759 218.77 425.999 217.488L427.582 208.674C427.687 207.83 427.333 207.309 426.196 207.309H412.641C412.714 207.008 413.329 202.235 414.882 197.745C415.549 195.838 416.798 194.285 417.851 193.222C418.894 192.181 420.092 191.441 421.405 191.013C422.749 190.576 424.281 190.368 425.958 190.368C427.23 190.368 428.49 190.513 429.438 190.711C430.75 190.993 431.261 191.139 431.606 191.243C432.992 191.66 433.178 191.254 433.45 190.587L436.69 181.689C437.024 180.729 436.201 180.322 435.909 180.208ZM246.514 271.897C246.514 272.606 246.004 273.179 245.295 273.179H234.053C233.344 273.179 232.844 272.606 232.844 271.897V181.417C232.844 180.709 233.344 180.136 234.053 180.136H245.295C246.004 180.136 246.514 180.709 246.514 181.417V271.897Z" fill="white"/>
</g>
<defs>
<clipPath id="clip0_205_405">
<rect width="731.429" height="512" fill="white"/>
</clipPath>
</defs>
</svg>
